
<svg xmlns="http://www.w3.org/2000/svg" viewBox="0 0 416.408 416.408">
  <path d="M415.414 180.501c-3.213-21.4-14.248-42.557-32.797-62.882-9.335-10.231-20.262-17.111-32.619-20.625-.982-10.91-4.825-19.481-11.468-25.501-10.725-9.718-24.695-8.866-25.283-8.825-2.746.191-4.809 2.563-4.631 5.31.179 2.746 2.559 4.825 5.301 4.667.107-.006 10.469-.541 17.975 6.328 4.089 3.741 6.688 9.083 7.777 15.916-3.222-.411-6.519-.64-9.908-.64-.705 0-1.411.026-2.118.044-5.874-3.693-27.58-14.669-60.675-.571-2.541 1.082-3.724 4.019-2.642 6.56 1.083 2.542 4.023 3.722 6.56 2.641 14.773-6.293 26.719-6.915 35.451-5.667-29.964 7.325-59.251 26.778-80.358 43.671-18.323 14.665-36.406 32.111-52.156 50.075-4.523-3.744-8.798-6.868-12.84-9.387 12.785-4.594 30.968-14.1 35.064-31.77 2.825-.493 5.366-1.316 7.452-2.568 2.368-1.421 3.136-4.492 1.715-6.86-1.421-2.367-4.492-3.136-6.859-1.715-10.082 6.049-42.474-4.405-47.209-9.178.206-2.169 3.654-6.759 7.606-9.991 2.139-1.742 2.463-4.888.723-7.029-1.74-2.142-4.889-2.469-7.034-.728-2.172 1.765-12.915 11.033-11.083 20.195.51 2.551 2.389 6.051 12.472 10.511 8.366 3.7 20.683 7.178 31.619 7.822-6.345 16.702-32.065 23.515-38.006 24.878-6.915-2.1-12.96-1.833-18.21.783-18.154 9.047-16.236 42.299-15.958 46.061.194 2.628 2.387 4.629 4.98 4.629.123 0 .247-.005.371-.014 2.753-.202 4.821-2.598 4.621-5.35-.006-.08-.563-8.067.71-16.767 1.063-7.265 3.615-16.564 9.743-19.612 6.885-3.422 18.737 1.435 33.62 13.697-7.9 9.483-15.076 19.021-21.222 28.287-5.314 8.009-10.155 15.754-14.641 23.197-33.312-20.877-81.981-39.563-98.116-45.506 1.259-2.436 2.545-4.829 3.853-7.16 4.595-8.186 9.255-15.314 13.725-21.462 5.456 1.687 15.816 4.429 25.523 4.429 6.585 0 12.869-1.263 17.111-4.975 5.203-4.552 8.815-11.666 12.309-18.545 2.816-5.545 7.068-13.952 9.778-13.59 3.42.427 10.064 5.531 15.404 9.631 9.517 7.308 18.5 14.209 26.233 11.449 1.288-.46 2.585-1.019 3.853-1.661 2.465-1.246 3.452-4.254 2.206-6.718-1.245-2.464-4.256-3.453-6.718-2.206-.898.454-1.81.847-2.706 1.167-2.585.93-12.174-6.428-16.777-9.963-7.271-5.584-14.14-10.858-20.255-11.623-9.674-1.204-14.892 9.056-19.935 18.984-3.063 6.032-6.23 12.269-9.979 15.548-4.781 4.183-18.394 2.56-29.505-.434 7.363-9.038 13.742-15.153 17.777-18.673.351 2.867.428 5.879.057 8.935-.332 2.742 1.621 5.233 4.362 5.566.204.024.407.037.607.037 2.493 0 4.65-1.862 4.958-4.398 2.262-18.655-8.313-35.283-8.764-35.981-1.499-2.319-4.593-2.987-6.913-1.487-2.319 1.498-2.985 4.593-1.487 6.913.047.073 2.463 3.875 4.537 9.61-5.487 4.234-24.74 21.18-44.124 54.554-6.774 11.664-16.784 38.911-17.734 41.664-11.216 32.518-13.662 59.705-7.262 80.907 11.708 38.784 31.861 57.637 61.612 57.637 11.167 0 21.714-2.552 31.019-4.804 2.053-.497 4.029-.975 5.914-1.399 23.211-5.222 220.504-87.431 280.418-112.503 12.45-5.209 22.456-15.23 27.452-27.494 6.03-14.797 7.889-30.288 5.524-46.041zM37.24 284.753c-2.716-.545-5.343 1.215-5.884 3.922-.683 3.415-2.158 7.839-5.311 9.521-1.683.899-3.562.892-4.988.677-3.915-16.982-4.354-37.292-.92-56.435 2.43-1.688 5.949-3.37 7.052-2.128 1.54 1.731 4.067 2.178 6.107 1.081 2.693-1.449 6.944-.959 10.585 1.215 1.817 1.086 6.045 4.206 6.045 9.716 0 1.855 1.026 3.557 2.667 4.422 1.64.866 3.626.751 5.156-.296 4.281-2.928 8.016-4.023 11.106-3.254 3.799.946 7.491 4.798 10.974 11.447.77 1.469 2.218 2.461 3.865 2.648 1.655.186 3.281-.455 4.36-1.714 2.521-2.938 8.029-4.031 13.391-2.659 3.363.86 11.189 3.975 14.133 14.474-.243.427-.488.858-.729 1.282-21.342 37.505-34.224 60.144-58.159 60.144-1.091 0-2.221-.047-3.357-.14-8.477-.695-15.801-5.441-21.77-14.105-3.033-4.403-5.58-9.701-7.631-15.621 2.108-.149 4.399-.668 6.677-1.854 5.379-2.801 8.93-8.338 10.554-16.459.541-2.708-1.215-5.343-3.923-5.884zm84.503-18.146c-3.998-6.665-10.215-11.433-17.819-13.378-6.576-1.684-13.159-.989-18.225 1.699-4.218-6.319-8.971-10.078-14.427-11.437-4.083-1.018-8.386-.602-12.849 1.231-1.766-4.313-5.021-8.077-9.415-10.702-5.502-3.287-11.939-4.243-17.266-2.721-2.52-1.412-5.552-1.759-8.838-1.029 1.979-7.199 3.859-11.922 6.016-16.645 14.731 5.427 64.604 24.465 97.423 45.064-1.573 2.685-3.107 5.327-4.6 7.918zm278.887-43.84c-4 9.818-12.037 17.853-22.051 22.043C255.5 296.313 117.638 352.773 99.826 356.781c-1.936.436-3.964.926-6.07 1.436-8.762 2.12-18.693 4.523-28.667 4.523-15.791 0-38.367-5.238-52.038-50.526-1.519-5.029-2.473-10.467-2.864-16.305 2.51 13.377 6.937 25.327 13.143 34.334 7.645 11.097 17.736 17.459 29.187 18.399 1.408.115 2.813.173 4.175.173 29.751 0 44.51-25.937 66.851-65.198 8.687-15.266 18.532-32.568 30.89-51.195 18.678-28.163 48.487-60.23 77.797-83.689 25.355-20.293 62.859-44.484 97.533-44.484 17.995 0 33.294 6.766 45.47 20.11 37.424 41.01 34.468 76.15 25.397 98.408z"/>
  <path d="M65.611 293.813c1.098.3 2.225.434 3.362.434 8.661 0 17.957-7.769 19.928-9.508 2.071-1.827 2.269-4.987.441-7.058-1.826-2.07-4.986-2.267-7.057-.441-3.808 3.358-11 7.752-14.044 6.926-3.822-1.042-8.025-7.623-9.462-10.647-1.181-2.494-4.159-3.561-6.649-2.386-2.499 1.176-3.571 4.155-2.396 6.653.647 1.373 6.586 13.493 15.877 16.027zm32.837-95.878c8.587-27.576 36.333-26.089 37.55-26.007 2.729.19 5.135-1.876 5.335-4.626.199-2.754-1.871-5.149-4.626-5.349-12.688-.928-39.021 4.793-47.806 33.009-.437 1.403-.21 2.844.482 4.017-24.312-12.971-41.159-1.35-42.033-.723-2.23 1.597-2.738 4.678-1.163 6.924s4.686 2.788 6.946 1.234c.829-.571 20.654-13.651 48.916 14.767.977.982 2.261 1.474 3.545 1.474 1.275 0 2.55-.484 3.525-1.455 1.958-1.947 1.967-5.113.02-7.071-5.4-5.43-10.595-9.569-15.523-12.684.02 0 .041.005.061.005 2.129 0 4.105-1.373 4.771-3.515zm151.55-90.581c1.307-2.433.394-5.464-2.04-6.771-1.615-.868-39.768-21.031-56.193-1.478-6.382 7.597-6.675 15.85-.805 22.644.988 1.145 2.383 1.731 3.785 1.731 1.158 0 2.322-.4 3.267-1.217 2.09-1.805 2.32-4.963.515-7.052-1.904-2.204-3.114-4.902.895-9.674 9.315-11.088 34.782-.974 43.807 3.855 2.432 1.308 5.463.396 6.769-2.038z"/>
  <path d="M182.437 132.52c5.897 1.401 11.146 1.988 15.805 1.988 23.579 0 32.009-15.052 32.42-15.816 1.31-2.432.413-5.489-2.019-6.798-2.434-1.311-5.45-.424-6.759 2.007-.363.637-9.211 15.527-37.135 8.889-2.688-.638-5.383 1.022-6.021 3.709-.638 2.688 1.022 5.383 3.709 6.021zM120.28 97.28c.496.065 5.126.644 11.523.644 10.979 0 27.159-1.706 36.567-10.643 1.966-1.868 3.813-3.689 5.6-5.45 10.926-10.768 17.043-16.307 26.021-14.597 2.714.513 5.33-1.263 5.848-3.976.517-2.713-1.264-5.331-3.977-5.847-14.548-2.771-23.984 6.529-34.91 17.298-1.755 1.729-3.569 3.518-5.469 5.322-9.488 9.014-32.03 8.349-39.913 7.333-2.753-.356-5.245 1.575-5.602 4.312-.357 2.738 1.573 5.247 4.312 5.604zm-31.582 31.384c2.543 1.074 5.476-.115 6.552-2.659.267-.634 3.569-2.454 14.833.225 8.391 1.995 16.426 5.367 16.506 5.401.635.268 1.294.395 1.942.395 1.949 0 3.803-1.147 4.608-3.056 1.074-2.543-.116-5.476-2.659-6.55-.354-.15-8.789-3.696-17.974-5.892-14.528-3.474-23.434-1.595-26.468 5.585-1.075 2.542.116 5.476 2.66 6.551zm10.457-20.132c5.243 1.187 17.704 3.705 28.963 3.705 7.898 0 15.205-1.239 19.011-5.045 1.953-1.953 1.953-5.119 0-7.071-1.951-1.952-5.119-1.952-7.07 0-2.917 2.916-19.16 3.073-38.695-1.341-2.692-.607-5.371 1.081-5.979 3.774-.611 2.692 1.077 5.369 3.77 5.978z"/>
  <path d="M136.645 81.427c.729.375 1.508.552 2.275.552 1.812 0 3.562-.988 4.453-2.705.73-1.409 18.489-34.374 68.48-23.401 2.695.591 5.364-1.114 5.956-3.812s-1.114-5.364-3.812-5.956c-29.987-6.581-49.94 1.403-61.4 9.26-12.572 8.622-17.907 18.922-18.128 19.356-1.248 2.455-.272 5.447 2.176 6.706zm52.014 9.408c11.075-8.232 26.078-9.063 44.59-2.469 2.601.928 5.462-.432 6.388-3.032.927-2.602-.431-5.461-3.032-6.388-52.741-18.787-68.227 21.921-68.377 22.334-.943 2.595.396 5.464 2.99 6.407.564.206 1.142.303 1.709.303 2.043 0 3.96-1.262 4.699-3.293.028-.077 3.043-7.923 11.033-13.862zm65.271-10.18c13.965 2.592 27.277 3.921 27.838 3.976.167.017.333.025.497.025 2.54 0 4.715-1.928 4.97-4.509.271-2.748-1.736-5.196-4.483-5.467-.125-.013-12.603-1.259-25.657-3.612-22.941-4.136-26.979-7.921-27.479-8.503-.292-1.001-.094-1.585.168-2.066 1.444-2.648 6.71-4.733 9.035-5.329 2.672-.674 4.295-3.385 3.626-6.061-.671-2.679-3.384-4.312-6.063-3.638-1.157.289-11.422 3.034-15.358 10.207-1.729 3.149-2.02 6.685-.839 10.225 1.489 4.474 6.664 9.725 33.745 14.752z"/>
  <path d="M257.489 66.502c.21-.053 21.21-5.097 38.25 9.006.933.772 2.062 1.148 3.185 1.148 1.438 0 2.866-.618 3.854-1.812 1.761-2.127 1.464-5.279-.664-7.04-21.054-17.424-46.045-11.261-47.1-10.99-2.668.686-4.271 3.399-3.594 6.07.678 2.67 3.398 4.288 6.069 3.618zm8.104 132.155c.54 0 1.091-.088 1.63-.274 7.75-2.673 12.969-6.958 15.51-12.737 3.451-7.849.464-15.174.111-15.984-1.101-2.532-4.045-3.693-6.579-2.592-2.532 1.101-3.692 4.047-2.591 6.579.017.039 1.618 4.074-.096 7.971-1.373 3.123-4.608 5.582-9.615 7.308-2.61.9-3.997 3.747-3.097 6.357.715 2.072 2.653 3.372 4.727 3.372zm54.129-42.936c-2.532 1.101-3.692 4.047-2.591 6.579.026.062 2.59 6.305-.135 12.501-2.114 4.806-6.947 8.541-14.367 11.099-2.61.9-3.997 3.747-3.097 6.357.714 2.071 2.652 3.372 4.727 3.372.54 0 1.09-.088 1.63-.274 10.163-3.504 16.979-9.065 20.261-16.527 4.51-10.254.332-20.1.151-20.514-1.1-2.533-4.046-3.696-6.579-2.593zM167.705 267.335c-2.532 1.101-3.702 4.023-2.602 6.556.017.042 1.668 4.167-.114 8.106-1.395 3.081-4.616 5.51-9.576 7.22-2.61.9-3.997 3.747-3.097 6.357.714 2.071 2.652 3.372 4.727 3.372.54 0 1.09-.088 1.63-.274 7.75-2.672 12.968-6.958 15.51-12.736 3.451-7.849.464-15.175.111-15.984-1.101-2.533-4.055-3.719-6.589-2.617zm59.429 3.168c-2.532 1.101-3.706 4.015-2.604 6.547.011.026 1.047 2.682-.077 5.135-.907 1.982-3.081 3.578-6.461 4.743-2.61.9-3.997 3.747-3.097 6.357.714 2.071 2.652 3.372 4.727 3.372.54 0 1.09-.088 1.63-.274 6.166-2.126 10.335-5.574 12.39-10.247 2.807-6.382.373-12.349.086-13.008-1.103-2.533-4.063-3.725-6.594-2.625zm-6.952-70.568c3.451-7.849.464-15.175.111-15.984-1.101-2.532-4.056-3.716-6.589-2.615-2.532 1.101-3.702 4.023-2.602 6.556.017.042 1.668 4.167-.114 8.106-1.395 3.081-4.616 5.51-9.576 7.22-2.61.9-3.997 3.747-3.097 6.357.714 2.071 2.652 3.372 4.727 3.372.54 0 1.09-.088 1.63-.274 7.75-2.674 12.968-6.959 15.51-12.738zm149.913-1.948c-2.532 1.101-3.709 4.007-2.608 6.54.008.02.779 2.035-.056 3.845-.866 1.875-3.255 3.029-5.106 3.667-2.61.9-3.997 3.747-3.097 6.357.714 2.071 2.652 3.372 4.727 3.372.54 0 1.09-.088 1.63-.274 5.476-1.888 9.187-4.971 11.03-9.163 2.525-5.743.334-11.119.076-11.713-1.102-2.533-4.064-3.73-6.596-2.631zm2.03-44.243c3.452-7.848.465-15.174.112-15.984-1.101-2.532-4.045-3.694-6.579-2.592-2.532 1.101-3.692 4.047-2.591 6.579.017.039 1.618 4.074-.096 7.971-1.374 3.123-4.608 5.582-9.616 7.308-2.61.9-3.997 3.746-3.097 6.357.714 2.071 2.652 3.372 4.727 3.372.54 0 1.09-.088 1.63-.274 7.751-2.673 12.969-6.958 15.51-12.737zm-93.552 67.11c-2.526 1.077-3.705 4.008-2.647 6.543.026.063 2.608 6.4-.163 12.576-2.126 4.739-6.926 8.425-14.266 10.956-2.61.9-3.997 3.747-3.097 6.357.714 2.071 2.652 3.372 4.727 3.372.54 0 1.09-.088 1.63-.274 10.133-3.494 16.93-9.039 20.202-16.48 4.498-10.227.331-20.046.151-20.459-1.095-2.52-4.006-3.667-6.537-2.591z"/>
</svg>
